<svg xmlns="http://www.w3.org/2000/svg" width="64" height="64"><defs><filter id="prefix__blur" width="200%" height="200%"><feGaussianBlur in="SourceAlpha" stdDeviation="3"/><feOffset dy="4" result="offsetblur"/><feComponentTransfer><feFuncA type="linear" slope=".05"/></feComponentTransfer><feMerge><feMergeNode/><feMergeNode in="SourceGraphic"/></feMerge></filter><style>@keyframes am-weather-sun{0%{-webkit-transform:rotate(0deg);-moz-transform:rotate(0deg);-ms-transform:rotate(0deg);transform:rotate(0deg)}to{-webkit-transform:rotate(360deg);-moz-transform:rotate(360deg);-ms-transform:rotate(360deg);transform:rotate(360deg)}}@keyframes am-weather-sun-shiny{0%,to{stroke-dasharray:3px 10px;stroke-dashoffset:0}50%{stroke-dasharray:.1px 10px;stroke-dashoffset:-1px}}@keyframes am-weather-snow{0%{-webkit-transform:translateX(0) translateY(0);-moz-transform:translateX(0) translateY(0);-ms-transform:translateX(0) translateY(0);transform:translateX(0) translateY(0)}33.33%{-webkit-transform:translateX(-1.2px) translateY(2px);-moz-transform:translateX(-1.2px) translateY(2px);-ms-transform:translateX(-1.2px) translateY(2px);transform:translateX(-1.2px) translateY(2px)}66.66%{-webkit-transform:translateX(1.4px) translateY(4px);-moz-transform:translateX(1.4px) translateY(4px);-ms-transform:translateX(1.4px) translateY(4px);transform:translateX(1.4px) translateY(4px);opacity:1}to{-webkit-transform:translateX(-1.6px) translateY(6px);-moz-transform:translateX(-1.6px) translateY(6px);-ms-transform:translateX(-1.6px) translateY(6px);transform:translateX(-1.6px) translateY(6px);opacity:0}}</style></defs><g filter="url(#prefix__blur)" id="prefix__snowy-1"><g transform="matrix(1.2 0 0 1.2 20 26)"><g style="-webkit-animation-name:am-weather-sun;-moz-animation-name:am-weather-sun;-ms-animation-name:am-weather-sun;animation-name:am-weather-sun;-webkit-animation-duration:9s;-moz-animation-duration:9s;-ms-animation-duration:9s;animation-duration:9s;-webkit-animation-timing-function:linear;-moz-animation-timing-function:linear;-ms-animation-timing-function:linear;animation-timing-function:linear;-webkit-animation-iteration-count:infinite;-moz-animation-iteration-count:infinite;-ms-animation-iteration-count:infinite;animation-iteration-count:infinite"><path fill="none" stroke="orange" stroke-linecap="round" stroke-width="2" d="M0 9v3M-6.364 6.364l-2.121 2.121M-9 0h-3M-6.364-6.364l-2.121-2.121M0-9v-3M6.364-6.364l2.121-2.121M9 0h3M6.364 6.364l2.121 2.121"/></g><circle fill="orange" r="5" stroke="orange" stroke-width="2"/></g><path d="M45.545 35.09c0-3.91-3.145-6.97-6.97-6.97-.85 0-1.615.17-2.38.425-.255-2.89-2.635-5.27-5.61-5.27a5.695 5.695 0 00-5.695 5.695c0 .68.17 1.36.34 1.955-.255-.085-.595-.085-.85-.085a5.695 5.695 0 00-5.695 5.695c0 3.06 2.465 5.61 5.525 5.695h14.62c3.74-.425 6.715-3.4 6.715-7.14z" fill="#57A0EE" stroke="#fff" stroke-linejoin="round" stroke-width="1.275"/><g><g fill="none" stroke="#57A0EE" stroke-linecap="round"><path stroke-width="1.2" d="M27 43.5v5"/><path transform="rotate(45 -42.027 55.592)" d="M0-2.5v5"/><path transform="rotate(90 -9.5 36.5)" d="M0-2.5v5"/><path transform="rotate(135 3.973 28.592)" d="M0-2.5v5"/></g><g fill="none" stroke="#57A0EE" stroke-linecap="round"><path stroke-width="1.2" d="M36 43.5v5"/><path transform="rotate(45 -37.527 66.456)" d="M0-2.5v5"/><path transform="rotate(90 -5 41)" d="M0-2.5v5"/><path transform="rotate(135 8.473 30.456)" d="M0-2.5v5"/></g></g></g></svg>